<?xml version="1.0" encoding="utf-8"?>
<!-- Generator: Adobe Illustrator 17.1.0, SVG Export Plug-In . SVG Version: 6.00 Build 0)  -->
<!DOCTYPE svg PUBLIC "-//W3C//DTD SVG 1.1//EN" "http://www.w3.org/Graphics/SVG/1.1/DTD/svg11.dtd">
<svg version="1.1" id="Layer_1" xmlns="http://www.w3.org/2000/svg" xmlns:xlink="http://www.w3.org/1999/xlink" x="0px" y="0px"
	 viewBox="0 0 1280 800" enable-background="new 0 0 1280 800" xml:space="preserve">
<path fill="#A6DAED" d="M640,0c220.8,0,400,179.2,400,400S860.8,800,640,800S240,620.8,240,400S419.2,0,640,0z"/>
<g>
	<g>
		<defs>
			<circle id="SVGID_1_" cx="640" cy="400" r="400"/>
		</defs>
		<clipPath id="SVGID_2_">
			<use xlink:href="#SVGID_1_"  overflow="visible"/>
		</clipPath>
		<g clip-path="url(#SVGID_2_)">
			<path fill="#3498DB" d="M600,488h80c88,0,160,72,160,160v64c0,88-72,160-160,160h-80c-88,0-160-72-160-160v-64
				C440,560,512,488,600,488z"/>
			<path fill="#F0F5F7" d="M639.2,640c-16,0-31.2,12-31.2,25.6c0,5.6,4,9.6,9.6,9.6c6.4,0,9.6-4,11.2-8c1.6-4,3.2-8,10.4-8
				c6.4,0,11.2,3.2,11.2,8.8c0,4.8-5.6,6.4-10.4,10.4c-5.6,4-12,9.6-12,17.6c0,4.8,3.2,9.6,9.6,9.6c7.2,0,8.8-4,9.6-7.2
				c0.8-1.6,0.8-2.4,1.6-3.2c0.8-1.6,3.2-3.2,6.4-4.8c2.4,0,12.8-7.2,16.8-23.2C676,647.2,654.4,640,639.2,640z M638.4,712.8
				c-6.4,0-11.2,4.8-11.2,11.2s4.8,11.2,11.2,11.2s11.2-4.8,11.2-11.2S644,712.8,638.4,712.8z"/>
			<path fill="#6DBFE2" d="M648,424c61.6,0,112,36,112,80s-50.4,80-112,80s-112-36-112-80S586.4,424,648,424z"/>
			<path fill="#4D301A" d="M504,376h288c8.8,0,16,7.2,16,16v88c0,8.8-7.2,16-16,16H504c-8.8,0-16-7.2-16-16v-88
				C488,383.2,495.2,376,504,376z"/>
			<path fill="#D3B3AB" d="M648,152c88,0,160,89.6,160,200s-72,200-160,200s-160-89.6-160-200S560,152,648,152z"/>
			<path fill="#FFFFFF" d="M588,344c15.2,0,28,12.8,28,28s-12.8,28-28,28s-28-12.8-28-28S572.8,344,588,344z"/>
			<path fill="#3498DB" d="M588,360c6.4,0,12,5.6,12,12s-5.6,12-12,12s-12-5.6-12-12S581.6,360,588,360z"/>
			<path fill="#FFFFFF" d="M700,344c15.2,0,28,12.8,28,28s-12.8,28-28,28s-28-12.8-28-28S684.8,344,700,344z"/>
			<path fill="#3498DB" d="M700,360c6.4,0,12,5.6,12,12s-5.6,12-12,12s-12-5.6-12-12S693.6,360,700,360z"/>
			<path fill="#4C3729" d="M804.8,312.8C790.4,221.6,725.6,152,648,152c-80,0-146.4,73.6-158.4,169.6c12.8,4,91.2,26.4,191.2-45.6
				C701.6,299.2,742.4,332.8,804.8,312.8z"/>
			<path fill="#646491" d="M800,296c-9.6,0-8,27.2-8,60c0,6.4,0,12.8,0,19.2c-8,12.8-30.4,44-56,60.8
				c-21.6,13.6-50.4,22.4-65.6,27.2c-4-9.6-12.8-15.2-22.4-15.2c-13.6,0-24,10.4-24,24s10.4,24,24,24c11.2,0,20.8-8,23.2-17.6
				c10.4-2.4,45.6-12,71.2-28c20.8-12.8,39.2-35.2,50.4-50.4c0.8,9.6,3.2,16,8,16c26.4,0,48-27.2,48-60S826.4,296,800,296z M496,296
				c-26.4,0-48,27.2-48,60s21.6,60,48,60c10.4,0,8-27.2,8-60S505.6,296,496,296z"/>
		</g>
	</g>
</g>
<circle fill="#A6DAED" cx="640" cy="400" r="400"/>
<g>
	<path fill="#156284" d="M863.3,348.3H404.7c-5.5,0-10,4.5-10,10v284.1c0,5.5,4.5,10,10,10h458.6c5.5,0,10-4.5,10-10V358.3
		C873.2,352.8,868.8,348.3,863.3,348.3z"/>
	<path fill="#EDF1F2" d="M409.6,233.6v408.7c0,5.6,4.5,10.1,10,10.1h428.6c5.5,0,10-4.5,10-10.1V163.9c0-5.6-4.5-10.1-10-10.1
		l-358.8,0C489.4,153.9,409.6,233.6,409.6,233.6z"/>
	<path opacity="0.1" enable-background="new    " d="M584.1,512.8l274.1-164.5l0,34.8L639,512.8H584.1z"/>
	<path fill="#3498DB" d="M394.7,642.4c0,5.5,4.5,10,10,10h458.5c5.5,0,10-4.5,10-10V363.3L633.9,507.8L394.7,363.3V642.4z"/>
	<path fill="#6DBFE2" d="M409.6,233.6l79.7,0V154L409.6,233.6z"/>
	<path fill="#6DBFE2" d="M394.7,363.3l0.3,269.1l239-124.6L394.7,363.3z"/>
	<polygon fill="#2980B9" points="873.2,363.3 633.9,507.8 873.2,632.4 	"/>
	<path opacity="0.3" enable-background="new    " d="M873.2,642.4v-9.9L633.9,507.8l235.9,142C871.8,648,873.2,645.3,873.2,642.4z"
		/>
	<path opacity="0.3" enable-background="new    " d="M394.7,642.4v-9.9l239.2-124.6L398,649.8C396,648,394.7,645.3,394.7,642.4z"/>
</g>
</svg>
