<?xml version="1.0" encoding="utf-8"?>
<!-- Generator: Adobe Illustrator 17.1.0, SVG Export Plug-In . SVG Version: 6.00 Build 0)  -->
<!DOCTYPE svg PUBLIC "-//W3C//DTD SVG 1.1//EN" "http://www.w3.org/Graphics/SVG/1.1/DTD/svg11.dtd">
<svg version="1.1" id="Layer_1" xmlns="http://www.w3.org/2000/svg" xmlns:xlink="http://www.w3.org/1999/xlink" x="0px" y="0px"
	 viewBox="0 0 100 100" enable-background="new 0 0 100 100" xml:space="preserve">
<path fill="#A6DAED" d="M50,0c27.6,0,50,22.4,50,50s-22.4,50-50,50C22.4,100,0,77.6,0,50S22.4,0,50,0z"/>
<g>
	<defs>
		<circle id="SVGID_1_" cx="50" cy="50" r="50"/>
	</defs>
	<clipPath id="SVGID_2_">
		<use xlink:href="#SVGID_1_"  overflow="visible"/>
	</clipPath>
	<g clip-path="url(#SVGID_2_)">
		<path fill="#3498DB" d="M45,61h10c11,0,20,9,20,20v8c0,11-9,20-20,20H45c-11,0-20-9-20-20v-8C25,70,34,61,45,61z"/>
		<path fill="#F0F5F7" d="M49.9,80c-2,0-3.9,1.5-3.9,3.2c0,0.7,0.5,1.2,1.2,1.2c0.8,0,1.2-0.5,1.4-1c0.2-0.5,0.4-1,1.3-1
			c0.8,0,1.4,0.4,1.4,1.1c0,0.6-0.7,0.8-1.3,1.3c-0.7,0.5-1.5,1.2-1.5,2.2c0,0.6,0.4,1.2,1.2,1.2c0.9,0,1.1-0.5,1.2-0.9
			c0.1-0.2,0.1-0.3,0.2-0.4c0.1-0.2,0.4-0.4,0.8-0.6c0.3,0,1.6-0.9,2.1-2.9C54.5,80.9,51.8,80,49.9,80z M49.8,89.1
			c-0.8,0-1.4,0.6-1.4,1.4c0,0.8,0.6,1.4,1.4,1.4s1.4-0.6,1.4-1.4S50.5,89.1,49.8,89.1z"/>
		<path fill="#6DBFE2" d="M51,53c7.7,0,14,4.5,14,10c0,5.5-6.3,10-14,10s-14-4.5-14-10C37,57.5,43.3,53,51,53z"/>
		<path fill="#4D301A" d="M33,47h36c1.1,0,2,0.9,2,2v11c0,1.1-0.9,2-2,2H33c-1.1,0-2-0.9-2-2V49C31,47.9,31.9,47,33,47z"/>
		<path fill="#D3B3AB" d="M51,19c11,0,20,11.2,20,25c0,13.8-9,25-20,25S31,57.8,31,44C31,30.2,40,19,51,19z"/>
		<path fill="#FFFFFF" d="M43.5,43c1.9,0,3.5,1.6,3.5,3.5c0,1.9-1.6,3.5-3.5,3.5S40,48.4,40,46.5C40,44.6,41.6,43,43.5,43z"/>
		<path fill="#3498DB" d="M43.5,45c0.8,0,1.5,0.7,1.5,1.5c0,0.8-0.7,1.5-1.5,1.5S42,47.3,42,46.5C42,45.7,42.7,45,43.5,45z"/>
		<path fill="#FFFFFF" d="M57.5,43c1.9,0,3.5,1.6,3.5,3.5c0,1.9-1.6,3.5-3.5,3.5S54,48.4,54,46.5C54,44.6,55.6,43,57.5,43z"/>
		<path fill="#3498DB" d="M57.5,45c0.8,0,1.5,0.7,1.5,1.5c0,0.8-0.7,1.5-1.5,1.5S56,47.3,56,46.5C56,45.7,56.7,45,57.5,45z"/>
		<path fill="#4C3729" d="M70.6,39.1C68.8,27.7,60.7,19,51,19c-10,0-18.3,9.2-19.8,21.2c1.6,0.5,11.4,3.3,23.9-5.7
			C57.7,37.4,62.8,41.6,70.6,39.1z"/>
		<path fill="#646491" d="M70,37c-1.2,0-1,3.4-1,7.5c0,0.8,0,1.6,0,2.4c-1,1.6-3.8,5.5-7,7.6c-2.7,1.7-6.3,2.8-8.2,3.4
			C53.3,56.7,52.2,56,51,56c-1.7,0-3,1.3-3,3s1.3,3,3,3c1.4,0,2.6-1,2.9-2.2c1.3-0.3,5.7-1.5,8.9-3.5c2.6-1.6,4.9-4.4,6.3-6.3
			c0.1,1.2,0.4,2,1,2c3.3,0,6-3.4,6-7.5S73.3,37,70,37z M32,37c-3.3,0-6,3.4-6,7.5s2.7,7.5,6,7.5c1.3,0,1-3.4,1-7.5S33.2,37,32,37z"
			/>
	</g>
</g>
</svg>
