<?xml version="1.0" encoding="UTF-8" standalone="no"?>
<svg width="200px" height="200px" viewBox="0 0 200 200" version="1.1" xmlns="http://www.w3.org/2000/svg" xmlns:xlink="http://www.w3.org/1999/xlink" xmlns:sketch="http://www.bohemiancoding.com/sketch/ns">
    <title>support</title>
    <description>Created with Sketch (http://www.bohemiancoding.com/sketch)</description>
    <defs>
        <circle id="path-1" cx="100" cy="100" r="100"></circle>
    </defs>
    <g id="Page-1" stroke="none" stroke-width="1" fill="none" fill-rule="evenodd" sketch:type="MSPage">
        <g id="support" sketch:type="MSLayerGroup">
            <path d="M100,0 C155.2,0 200,44.8 200,100 C200,155.2 155.2,200 100,200 C44.8,200 0,155.2 0,100 C0,44.8 44.8,0 100,0 L100,0 Z" id="Shape" fill="#A6DAED" sketch:type="MSShapeGroup"></path>
            <g id="Clipped">
                <mask id="mask-2" sketch:name="SVGID_1_" fill="white">
                    <use xlink:href="#path-1"></use>
                </mask>
                <g id="SVGID_1_"></g>
                <g id="Group" mask="url(#mask-2)" transform="translate(50.000000, 38.000000)" sketch:type="MSShapeGroup">
                    <path d="M40,84 L60,84 C82,84 100,102 100,124 L100,140 C100,162 82,180 60,180 L40,180 C18,180 0,162 0,140 L0,124 C0,102 18,84 40,84 L40,84 Z" id="Shape" fill="#3498DB"></path>
                    <path d="M49.8,122 C45.8,122 42,125 42,128.4 C42,129.8 43,130.8 44.4,130.8 C46,130.8 46.8,129.8 47.2,128.8 C47.6,127.8 48,126.8 49.8,126.8 C51.4,126.8 52.6,127.6 52.6,129 C52.6,130.2 51.2,130.6 50,131.6 C48.6,132.6 47,134 47,136 C47,137.2 47.8,138.4 49.4,138.4 C51.2,138.4 51.6,137.4 51.8,136.6 C52,136.2 52,136 52.2,135.8 C52.4,135.4 53,135 53.8,134.6 C54.4,134.6 57,132.8 58,128.8 C59,123.8 53.6,122 49.8,122 L49.8,122 Z M49.6,140.2 C48,140.2 46.8,141.4 46.8,143 C46.8,144.6 48,145.8 49.6,145.8 C51.2,145.8 52.4,144.6 52.4,143 C52.4,141.4 51,140.2 49.6,140.2 L49.6,140.2 Z" id="Shape" fill="#F0F5F7"></path>
                    <path d="M52,68 C67.4,68 80,77 80,88 C80,99 67.4,108 52,108 C36.6,108 24,99 24,88 C24,77 36.6,68 52,68 L52,68 Z" id="Shape" fill="#6DBFE2"></path>
                    <path d="M16,56 L88,56 C90.2,56 92,57.8 92,60 L92,82 C92,84.2 90.2,86 88,86 L16,86 C13.8,86 12,84.2 12,82 L12,60 C12,57.8 13.8,56 16,56 L16,56 Z" id="Shape" fill="#4D301A"></path>
                    <path d="M52,0 C74,0 92,22.4 92,50 C92,77.6 74,100 52,100 C30,100 12,77.6 12,50 C12,22.4 30,0 52,0 L52,0 Z" id="Shape" fill="#D3B3AB"></path>
                    <path d="M37,48 C40.8,48 44,51.2 44,55 C44,58.8 40.8,62 37,62 C33.2,62 30,58.8 30,55 C30,51.2 33.2,48 37,48 L37,48 Z" id="Shape" fill="#FFFFFF"></path>
                    <path d="M37,52 C38.6,52 40,53.4 40,55 C40,56.6 38.6,58 37,58 C35.4,58 34,56.6 34,55 C34,53.4 35.4,52 37,52 L37,52 Z" id="Shape" fill="#3498DB"></path>
                    <path d="M65,48 C68.8,48 72,51.2 72,55 C72,58.8 68.8,62 65,62 C61.2,62 58,58.8 58,55 C58,51.2 61.2,48 65,48 L65,48 Z" id="Shape" fill="#FFFFFF"></path>
                    <path d="M65,52 C66.6,52 68,53.4 68,55 C68,56.6 66.6,58 65,58 C63.4,58 62,56.6 62,55 C62,53.4 63.4,52 65,52 L65,52 Z" id="Shape" fill="#3498DB"></path>
                    <path d="M91.2,40.2 C87.6,17.4 71.4,0 52,0 C32,0 15.4,18.4 12.4,42.4 C15.6,43.4 35.2,49 60.2,31 C65.4,36.8 75.6,45.2 91.2,40.2 L91.2,40.2 Z" id="Shape" fill="#4C3729"></path>
                    <path d="M90,36 C87.6,36 88,42.8 88,51 L88,55.8 C86,59 80.4,66.8 74,71 C68.6,74.4 61.4,76.6 57.6,77.8 C56.6,75.4 54.4,74 52,74 C48.6,74 46,76.6 46,80 C46,83.4 48.6,86 52,86 C54.8,86 57.2,84 57.8,81.6 C60.4,81 69.2,78.6 75.6,74.6 C80.8,71.4 85.4,65.8 88.2,62 C88.4,64.4 89,66 90.2,66 C96.8,66 102.2,59.2 102.2,51 C102.2,42.8 96.6,36 90,36 L90,36 Z M14,36 C7.4,36 2,42.8 2,51 C2,59.2 7.4,66 14,66 C16.6,66 16,59.2 16,51 C16,42.8 16.4,36 14,36 L14,36 Z" id="Shape" fill="#646491"></path>
                </g>
            </g>
        </g>
    </g>
</svg>